HIERARCHY
ROOT Hips
{
     OFFSET 14.44610 94.54650 6.27449
     CHANNELS 6 Xposition Yposition Zposition Zrotation Xrotation Yrotation
     JOINT Spine
     {
          OFFSET 0.00000 11.89050 -0.00000
          CHANNELS 3 Zrotation Xrotation Yrotation
          JOINT Spine1
          {
               OFFSET 0.00000 25.65740 0.12766
               CHANNELS 3 Zrotation Xrotation Yrotation
               JOINT HEad
               {
                    OFFSET 0.00000 8.73416 0.01134
                    CHANNELS 3 Zrotation Xrotation Yrotation
                    End Site
                    {
                         OFFSET -0.29000 12.77420 2.51395
                    }
               }
               JOINT LeftShoulder1
               {
                    OFFSET 8.99000 -0.36225 -0.22000
                    CHANNELS 3 Zrotation Xrotation Yrotation
                    JOINT LeftArm
                    {
                         OFFSET 10.28270 -0.00338 0.32212
                         CHANNELS 3 Zrotation Xrotation Yrotation
                         JOINT LeftForeArm
                         {
                              OFFSET 32.76690 0.09914 -1.42434
                              CHANNELS 3 Zrotation Xrotation Yrotation
                              JOINT LeftHand
                              {
                                   OFFSET 27.56430 0.08536 1.02216
                                   CHANNELS 3 Zrotation Xrotation Yrotation
                                   End Site
                                   {
                                        OFFSET 16.74430 -0.60000 1.50291
                                   }
                              }
                         }
                    }
               }
               JOINT RightShoulder
               {
                    OFFSET -8.99000 -0.36225 -0.22000
                    CHANNELS 3 Zrotation Xrotation Yrotation
                    JOINT RightArm
                    {
                         OFFSET -10.28270 -0.00338 0.32212
                         CHANNELS 3 Zrotation Xrotation Yrotation
                         JOINT RightForeArm
                         {
                              OFFSET -32.89710 0.09914 -1.42434
                              CHANNELS 3 Zrotation Xrotation Yrotation
                              JOINT RightHand
                              {
                                   OFFSET -27.49210 0.08536 1.02216
                                   CHANNELS 3 Zrotation Xrotation Yrotation
                                   End Site
                                   {
                                        OFFSET -16.63120 -0.60000 1.50291
                                   }
                              }
                         }
                    }
               }
          }
     }
     JOINT LeftUpLeg
     {
          OFFSET 8.94580 -8.66707 0.10165
          CHANNELS 3 Zrotation Xrotation Yrotation
          JOINT LeftLeg
          {
               OFFSET -0.00000 -44.42270 1.37270
               CHANNELS 3 Zrotation Xrotation Yrotation
               JOINT LeftFoot
               {
                    OFFSET -0.25355 -42.09240 -1.46059
                    CHANNELS 3 Zrotation Xrotation Yrotation
                    JOINT LeftToes
                    {
                         OFFSET -0.04000 -4.41509 8.49910
                         CHANNELS 3 Zrotation Xrotation Yrotation
                         End Site
                         {
                              OFFSET 0.08000 -0.04745 9.77979
                         }
                    }
               }
          }
     }
     JOINT RightUpLeg
     {
          OFFSET -8.94580 -8.66707 0.10165
          CHANNELS 3 Zrotation Xrotation Yrotation
          JOINT RightLeg
          {
               OFFSET -0.00000 -44.42270 1.37270
               CHANNELS 3 Zrotation Xrotation Yrotation
               JOINT RightFoot
               {
                    OFFSET 0.25355 -42.09240 -1.46059
                    CHANNELS 3 Zrotation Xrotation Yrotation
                    JOINT RightToes
                    {
                         OFFSET 0.04000 -4.41509 8.49910
                         CHANNELS 3 Zrotation Xrotation Yrotation
                         End Site
                         {
                              OFFSET -0.08000 -0.13745 9.77979
                         }
                    }
               }
          }
     }
}
MOTION
Frames: 19
Frame Time: 0.01667
8.21275 95.77610 7.11579 -13.21270 -7.43794 -69.04530 -8.67625 10.82830 -1.35500 -4.34586 21.64050 -4.48214 4.52443 0.35859 -1.58110 -0.00000 -0.00000 0.00000 -105.80300 -47.77520 -88.27270 -26.82360 48.17850 -79.22620 21.33250 6.18647 -16.07650 20.99510 0.80933 1.11038 87.17230 -12.30020 73.30200 16.74610 35.08640 99.13570 13.73570 11.54070 8.77444 21.95210 -9.11242 -17.81170 -35.24960 24.71850 82.59690 0.36991 11.98650 -0.15067 4.30948 -23.87190 -62.10910 -18.18410 6.28035 9.21104 35.28550 7.65606 -42.01460 -49.44330 6.91124 6.62660 22.47710 -60.73070 33.40250 
8.08434 95.55810 7.51295 -13.47730 -6.61370 -70.99950 -7.81076 10.97980 -1.55911 -4.26126 21.78330 -4.41924 4.39183 0.46038 -0.97257 -0.00000 -0.00000 0.00000 -113.70100 -49.72690 -93.35220 -31.99610 53.83400 -75.19440 22.84120 5.89797 -16.12030 20.84490 0.78094 1.00406 87.21020 -12.03310 73.46640 16.72650 35.26300 99.02940 13.56850 11.49570 8.56641 22.05100 -9.44866 -18.50060 -35.51330 21.81840 82.66080 0.97407 12.36130 -0.25922 3.03272 -27.03450 -64.04380 -17.74730 5.42602 9.54042 35.33700 8.67906 -41.83330 -49.43470 7.41152 6.85661 24.28280 -61.66880 35.67270 
7.84089 95.44050 7.89144 -13.98980 -5.91002 -72.44170 -6.88462 11.18650 -2.00917 -4.19841 22.08350 -4.84732 4.76624 -0.08954 0.40382 -0.00000 -0.00000 0.00000 -105.05200 -47.63990 -87.65940 -26.71660 47.13760 -79.50560 20.95470 6.26804 -16.01220 21.34720 0.86608 1.31263 86.60050 -11.46110 73.06120 16.79860 35.06170 98.96390 13.84460 11.54320 8.69590 21.82950 -9.66415 -18.41290 -34.75400 19.70130 80.76090 1.18165 11.97830 -0.28912 2.48699 -28.46410 -63.68210 -16.87930 5.02648 8.67378 34.65750 10.56950 -40.91340 -49.01880 7.74863 6.94487 24.73840 -62.33900 35.73810 
7.55887 95.27730 8.35581 -14.08160 -4.98279 -74.19760 -6.12212 11.18720 -2.10513 -3.90272 21.98340 -4.70172 4.19998 0.99346 -0.15421 -0.00000 -0.00000 0.00000 -103.08100 -46.60110 -86.26270 -26.05840 45.49280 -79.96990 21.06360 6.32448 -15.59670 21.17450 0.71593 0.68789 86.82170 -11.07430 73.32000 15.93580 35.22620 99.50340 13.51260 11.47500 8.44971 21.74220 -10.06940 -17.94900 -33.61190 17.49950 79.06160 0.48441 12.25170 -0.17292 1.69806 -30.48670 -63.44500 -16.38290 4.26000 9.04837 34.88660 11.54530 -39.68940 -47.70360 8.36997 7.00860 23.25490 -62.22270 33.22310 
7.19008 95.09500 8.80390 -14.36680 -4.38738 -75.99460 -5.28578 11.27960 -2.24210 -3.91043 22.14230 -4.61426 3.55039 1.70269 0.76221 -0.00000 -0.00000 0.00000 -102.99300 -46.66800 -86.08700 -26.04020 45.15410 -79.89650 20.51050 6.31402 -16.21150 20.63960 0.65077 0.45504 86.54640 -10.00710 72.93400 15.24180 34.50200 99.99690 13.18950 11.48780 8.85244 21.50140 -9.85101 -18.18740 -32.52880 14.36390 77.29800 -0.19354 11.36450 -0.05179 3.04717 -27.30120 -61.88990 -16.36700 3.99932 9.69648 35.47230 12.01870 -38.69340 -47.60030 8.03980 6.84502 22.69790 -61.87350 32.58670 
6.82327 94.89720 9.35678 -14.76600 -3.46872 -77.49450 -4.12980 11.34580 -2.50197 -3.62525 22.28620 -4.76809 3.02349 1.40815 1.08312 -0.00000 -0.00000 0.00000 -105.62600 -47.61550 -87.94840 -28.04100 47.06870 -78.28500 21.15240 6.26929 -15.80880 20.25320 0.74356 0.90499 87.21840 -9.99200 73.10760 15.66430 34.85210 99.48660 13.50250 11.53440 8.93827 21.54660 -10.05840 -18.64050 -31.42480 11.88360 76.01310 0.27741 10.24660 -0.12026 3.61787 -25.94370 -60.28280 -15.30170 3.45956 8.85457 34.69050 14.23690 -37.19010 -46.25600 8.04782 6.62980 22.37770 -62.37740 31.48490 
6.34018 94.70180 10.00940 -14.74380 -2.96857 -79.59830 -3.38733 11.27850 -2.45213 -3.70922 22.18970 -4.40186 2.83758 0.99207 1.80414 -0.00000 -0.00000 0.00000 -102.63400 -46.89010 -86.06960 -25.85740 44.92900 -79.97150 20.85020 6.32809 -15.78800 19.80740 0.79817 1.20347 87.23990 -9.87803 73.11170 15.79540 34.73960 99.40330 13.88930 11.63740 9.39503 20.97930 -10.39140 -19.00610 -30.15910 9.88017 75.14750 -1.80652 10.09140 0.20259 4.43515 -23.71730 -58.03310 -15.65230 2.84725 9.13443 35.29470 15.03360 -37.39600 -47.21350 7.09609 6.36725 23.12850 -62.44580 32.76160 
5.69310 94.47000 10.62380 -14.89960 -2.10160 -81.49750 -2.64144 11.26570 -2.44519 -3.62672 22.20050 -4.12379 2.36645 1.40923 2.02160 -0.00000 -0.00000 0.00000 -102.25100 -46.90690 -86.01250 -24.88910 44.56420 -80.68540 20.77870 6.40999 -15.40800 19.98830 0.92247 1.74208 86.93310 -9.92587 73.35910 15.46620 34.75930 99.55560 13.95650 11.59570 9.00682 20.87600 -10.59390 -18.57550 -28.55460 8.56765 73.74720 -1.70459 10.13020 0.18720 4.99926 -21.96180 -57.59900 -15.43050 2.56959 9.20466 35.59020 15.95340 -36.86840 -46.62260 7.24494 6.34136 23.35360 -62.37360 33.23990 
5.06926 94.41540 11.27730 -14.93410 -1.33779 -83.13460 -1.68481 11.27110 -2.61820 -3.21428 22.26500 -4.23340 1.51261 1.67518 2.61704 -0.00000 -0.00000 0.00000 -103.45600 -47.56210 -86.72100 -26.04280 45.19020 -80.17640 21.24030 6.35459 -15.26260 18.83360 1.03604 2.45679 87.55930 -9.74779 73.78600 14.82650 34.98180 99.93260 13.64280 11.50460 8.57070 20.87430 -10.34130 -17.79520 -26.83730 6.67811 69.42670 -2.51848 9.65291 0.30553 6.00976 -18.53260 -55.98610 -14.91880 2.16358 8.15356 35.20240 17.71670 -35.19110 -45.30610 7.09073 6.07463 23.24610 -61.41190 34.07890 
4.41701 94.28880 11.87860 -15.33420 -0.62645 -85.21260 -1.28276 11.26310 -2.49187 -3.34825 22.34380 -3.81169 0.94315 1.50057 3.50791 -0.00000 -0.00000 0.00000 -100.90700 -47.50620 -85.05250 -24.49580 43.48910 -81.23960 20.98770 6.23035 -16.18450 19.52570 0.86598 1.55102 87.12650 -8.49433 73.77540 15.02220 35.13500 99.47450 13.89570 11.54990 8.70273 20.94090 -9.85096 -17.33650 -25.24840 5.41879 66.17120 -2.48293 10.81450 0.31818 5.72705 -19.41380 -55.06520 -14.81490 2.32027 8.11677 35.39610 18.44130 -34.96370 -44.53660 6.94728 5.89952 24.03450 -61.26270 35.67950 
3.64567 94.27370 12.42100 -15.16470 -0.04444 -86.80230 -0.94458 11.10990 -2.53961 -2.89276 22.04390 -3.92812 0.65216 1.68280 4.15042 -0.00000 -0.00000 0.00000 -101.46200 -48.17100 -84.96760 -24.69780 43.68460 -81.56070 20.89110 6.33127 -15.72990 18.59620 1.03797 2.51002 87.23230 -8.50301 73.47450 14.73710 34.87130 99.61190 13.93470 11.56760 8.80656 20.69210 -10.08950 -17.14310 -23.50810 4.87616 62.30390 -3.76037 11.70270 0.54695 6.23407 -17.57600 -54.78320 -15.01650 2.36534 8.33303 35.76330 18.29070 -34.52500 -44.21590 7.60671 6.12155 23.98980 -60.79620 36.12660 
2.86847 94.34530 12.97280 -15.42410 0.39738 -88.92190 -0.75057 11.12870 -2.33148 -3.40219 22.16070 -3.26638 0.86774 2.29602 4.55898 -0.00000 -0.00000 0.00000 -102.38900 -48.98840 -86.01560 -25.05300 44.55070 -81.32970 20.41860 6.39954 -15.82730 19.18310 0.98711 2.16524 86.51810 -7.37028 73.22470 13.26940 34.29270 100.47200 13.84750 11.54960 8.74347 20.42870 -8.73408 -14.88500 -21.59790 3.44704 57.16550 -3.36675 13.55060 0.52351 5.34185 -20.59970 -51.94360 -14.82050 2.22800 8.41309 35.34910 19.76410 -32.64320 -43.40970 7.23489 5.84779 21.65650 -59.79080 32.87510 
2.13121 94.32130 13.63650 -15.17130 0.95342 -90.90570 -0.47730 10.96790 -2.19251 -3.54140 21.88300 -2.87644 0.64744 1.87127 5.32624 -0.00000 -0.00000 0.00000 -103.25300 -49.97240 -86.55080 -25.14890 45.86110 -81.68530 21.53370 6.21829 -15.71030 19.52970 1.13257 2.77638 85.89600 -7.30175 73.33700 14.71740 34.29070 99.15980 13.90090 11.63280 9.34849 20.59240 -8.64294 -14.54760 -20.77880 2.50472 56.28270 -1.88804 14.43740 0.26017 4.80387 -22.65340 -53.53120 -14.85220 1.82277 8.78766 35.48380 20.28840 -31.83710 -43.27120 6.85244 5.67414 20.56810 -59.63620 30.94120 
1.39701 94.40680 14.17510 -15.13930 1.18224 -92.70410 -0.69856 10.89620 -2.04803 -3.33431 21.69150 -2.73220 -0.04064 2.61283 5.80523 -0.00000 -0.00000 0.00000 -103.79900 -50.29310 -86.56430 -26.97040 45.45600 -80.40690 20.43780 6.33916 -16.14630 18.28280 1.12514 2.99247 86.43150 -6.93170 72.88100 14.45000 34.26870 99.40250 14.18950 11.64900 9.20792 20.21660 -8.86708 -14.85120 -20.09230 3.19054 53.83530 -4.02267 13.36270 0.63902 5.82210 -18.65850 -51.55640 -15.63590 2.30207 9.38291 35.89460 19.01550 -33.26150 -44.16630 8.83964 6.61735 25.29720 -62.04870 37.05200 
0.69114 94.55450 14.68400 -15.17580 1.60601 -94.58840 -0.64113 10.90750 -1.89822 -3.35563 21.72960 -2.39593 -0.21936 2.70847 5.96334 -0.00000 -0.00000 0.00000 -105.79300 -51.55970 -88.27330 -27.56930 47.25050 -80.34640 21.36400 6.22298 -15.85010 17.83940 1.04297 2.68144 86.46190 -6.00902 72.96650 13.86810 33.94460 99.54440 14.25830 11.69270 9.48001 20.51180 -8.29790 -14.80740 -20.05060 2.94451 52.36360 -5.08127 12.94550 0.81669 6.24307 -16.36980 -48.96000 -15.82880 2.29791 9.75598 35.86790 19.20820 -34.27360 -44.66230 9.36220 6.91647 27.26060 -62.72940 39.67940 
-0.00783 94.52240 15.42170 -14.97890 2.25720 -96.31590 -0.16112 10.72830 -1.95517 -3.32882 21.47070 -2.39509 -0.68891 2.40656 7.28528 -0.00000 -0.00000 0.00000 -108.81000 -53.54990 -90.67100 -29.86100 49.46540 -78.85110 21.83930 6.00407 -16.53880 18.23990 1.18278 3.28162 85.69470 -5.59615 72.45990 13.82170 33.83790 99.65310 13.88260 11.59950 9.10447 21.23220 -8.78320 -16.84470 -20.93390 3.35449 54.92270 -4.37456 13.48060 0.70711 5.90536 -18.25770 -51.12280 -15.63880 1.85171 9.87065 35.76250 20.15170 -33.26360 -43.43180 9.96266 6.94491 25.93010 -62.83710 37.26370 
-0.79028 94.78730 15.97040 -15.06260 2.14355 -97.51820 -0.96480 10.77780 -1.95044 -3.48333 21.46490 -2.57663 -0.95252 2.61878 7.64049 -0.00000 -0.00000 0.00000 -109.49400 -54.31710 -91.16870 -29.94320 49.95270 -79.27100 21.90920 6.01957 -16.38950 18.22580 1.21404 3.43673 85.65270 -5.30004 72.31380 13.08450 33.85760 100.22100 13.46300 11.51730 8.83735 20.44900 -8.15062 -16.69960 -20.05190 3.61502 53.41150 -5.88595 13.14080 0.96978 6.73401 -14.99280 -51.71020 -16.69380 2.79259 10.95620 36.20470 18.33180 -34.10850 -44.73330 10.94920 7.58564 27.15030 -63.73830 38.32330 
-1.46150 94.95450 16.64790 -14.88110 2.79389 -98.83240 -0.35574 10.69230 -2.10501 -3.30005 21.38040 -2.68528 0.26437 2.35030 8.52914 -0.00000 -0.00000 0.00000 -114.66200 -55.53800 -94.89310 -33.08540 52.55680 -77.16400 21.45260 6.12901 -16.26400 18.46160 1.18442 3.24021 84.95290 -4.34476 72.27590 12.70190 33.43140 100.17500 13.36570 11.54850 9.18172 21.37640 -7.45738 -17.35970 -20.97870 2.51494 53.68140 -1.98543 14.56840 0.28034 5.71136 -19.24840 -52.84880 -16.09240 2.26091 9.52831 35.24580 20.57060 -31.66340 -42.75990 10.68270 7.10956 24.23400 -62.03570 35.17780 
-2.16787 95.14520 17.29400 -14.71410 3.35442 -100.09900 -0.27723 10.59480 -2.19450 -2.86536 21.17660 -2.93753 -0.70452 2.86193 9.08570 -0.00000 -0.00000 0.00000 -108.98700 -55.31260 -90.45810 -29.50900 49.29230 -80.49180 21.55650 6.07668 -16.43820 17.28350 1.23212 3.75546 85.39870 -4.26423 71.96470 13.21240 33.41100 99.85890 13.24470 11.53470 9.18611 21.74520 -7.17370 -18.00110 -21.15300 2.93980 54.12810 -3.08059 15.86950 0.51884 5.53366 -20.07790 -54.86530 -16.06380 2.32121 10.12720 35.42700 20.43880 -30.84230 -40.89310 10.48450 6.69356 21.71670 -60.26080 32.48110 
